<svg width="123" height="162" viewBox="0 0 123 162" fill="none" xmlns="http://www.w3.org/2000/svg">
<line x1="109.311" y1="38.8784" x2="109.311" y2="0.0056839" stroke="#FCEFB3" stroke-width="0.5"/>
<line x1="61.1807" y1="82.9438" x2="61.1807" y2="-0.000312805" stroke="#FCEFB3" stroke-width="0.5"/>
<path d="M86.7758 76.9956C82.8411 74.9928 78.4301 73.9967 73.9723 74.104C69.5145 74.2114 65.1617 75.4187 61.338 77.6082C57.5142 79.7978 54.3497 82.8951 52.1526 86.5985C49.9555 90.3019 48.8008 94.4851 48.8008 98.7409C48.8008 102.997 49.9555 107.18 52.1526 110.883C54.3497 114.587 57.5142 117.684 61.338 119.874C65.1617 122.063 69.5145 123.27 73.9723 123.378C78.4301 123.485 82.8411 122.489 86.7758 120.486C80.7328 120.486 74.9374 118.195 70.6643 114.117C66.3913 110.039 63.9908 104.508 63.9908 98.7409C63.9908 92.9737 66.3913 87.4427 70.6643 83.3646C74.9374 79.2866 80.7328 76.9956 86.7758 76.9956Z" fill="#D3A500"/>
<path d="M109.559 48.0015V71.7236M98.5117 59.8625H120.606" stroke="#7A5FD2" stroke-width="1.6" stroke-linecap="round"/>
<path d="M101.605 51.3228L117.514 68.4027M117.514 51.3228L101.605 68.4027" stroke="#7A5FD2" stroke-width="1.6" stroke-linecap="round"/>
<path d="M13.4486 107.438V131.161M2.40137 119.3H24.4959" stroke="#7A5FD2" stroke-width="1.6" stroke-linecap="round"/>
<path d="M5.49512 110.76L21.4032 127.84M21.4032 110.76L5.49512 127.84" stroke="#7A5FD2" stroke-width="1.6" stroke-linecap="round"/>
<g clip-path="url(#clip0_70_2295)">
<path d="M94.6462 133.534L99.7666 143.877H109.56L101.573 150.879L103.992 162L94.6462 156.117L85.3002 162L87.7196 150.879L79.7324 143.877H89.5258L94.6462 133.534Z" stroke="#FCEFB3" stroke-width="1.6" stroke-linecap="round" stroke-linejoin="round"/>
</g>
<line x1="13.1982" y1="98.7134" x2="13.1982" y2="0.00566864" stroke="#FCEFB3" stroke-width="0.5"/>
<line x1="94.3955" y1="131.162" x2="94.3955" y2="99.3129" stroke="#7A5FD2" stroke-width="0.5"/>
<defs>
<clipPath id="clip0_70_2295">
<rect width="29.8276" height="28.4666" fill="white" transform="translate(79.7324 133.534)"/>
</clipPath>
</defs>
</svg>
